<svg xmlns="http://www.w3.org/2000/svg" viewBox="0 0 76 40">
  <path
    fill="#000000"
    d="M31.2955 4.0185H8.458c-2.5608 0-4.6366 2.0759-4.6366 4.6367 0 2.5608 2.0758 4.6366 4.6366 4.6366h11.6438L1.3582 32.0356c-1.811 1.8104-1.811 4.7462 0 6.5571 1.8106 1.8107 4.7464 1.8107 6.557 0l18.7436-18.7436v11.6435c0 2.5608 2.0759 4.6367 4.6367 4.6367 2.5608 0 4.6366-2.0759 4.6366-4.6367V8.6552c0-2.5608-2.0758-4.6367-4.6366-4.6367"
  />
  <path
    fill="#FF7900"
    d="M44.642 35.9321h22.8375c2.5608 0 4.6367-2.0758 4.6367-4.6366 0-2.5608-2.0759-4.6367-4.6367-4.6367H55.8358L74.5794 7.9152c1.8109-1.8106 1.8109-4.7464 0-6.557-1.8107-1.811-4.7464-1.811-6.557 0L49.2786 20.1018V8.458c0-2.5608-2.0758-4.6366-4.6366-4.6366-2.5608 0-4.6367 2.0758-4.6367 4.6366v22.8375c0 2.5608 2.0759 4.6366 4.6367 4.6366"
  />
</svg>
