<svg xmlns="http://www.w3.org/2000/svg" width="125.388" height="58.911" viewBox="0 0 125.388 58.911">
  <g id="Group_7470" data-name="Group 7470" transform="translate(5.514 366.718)">
    <path id="Path_14520" data-name="Path 14520" d="M47.119-291.535H38.366v-6h8.752a3.169,3.169,0,0,1,3.445,3.023,3.163,3.163,0,0,1-3.445,2.98m-8.752-15.607H46.24a2.7,2.7,0,0,1,2.983,2.677,2.709,2.709,0,0,1-2.983,2.719H38.366Zm12.352,7a5.046,5.046,0,0,0,2.944-4.783c0-4.287-3.251-6.431-6.926-6.431l-15.751-.033a5.539,5.539,0,0,1,2.948,4.238v16.157a3.958,3.958,0,0,0,3.247,3.665H47.617c4.211,0,7.387-2.676,7.387-6.961a5.872,5.872,0,0,0-4.286-5.852" transform="translate(-13.634 -20.669)" fill="#006eb8"/>
    <path id="Path_14521" data-name="Path 14521" d="M92.3-311.335H86.755l-8.062,9.608H77.048v-9.608l-7.271.031a5.577,5.577,0,0,1,2.831,3.647v20.35h4.44v-10.212H79.99l7,10.212h5.662l-9.6-13.424Z" transform="translate(-28.125 -20.688)" fill="#006eb8"/>
    <path id="Path_14522" data-name="Path 14522" d="M11.122-291.29H2.365a3.162,3.162,0,0,1-3.442-2.983,3.166,3.166,0,0,1,3.442-3.022h8.756Zm4.438.626-.065-15.143c-.5-3.563-3.486-5.344-6.818-5.344H-2.242v4.231l10.425-.02a2.706,2.706,0,0,1,2.938,2.3v3.139H3.247c-2.85.087-8.813.32-8.76,7.459.034,4.284,3.174,6.959,7.381,6.959H15.485v0h2.889a5.561,5.561,0,0,1-2.815-3.581" transform="translate(0 -20.758)" fill="#006eb8"/>
    <path id="Path_14523" data-name="Path 14523" d="M38.446-344.982s2.748-2.14,3.269,2.147c0,0-3.211.608-3.269-2.147m11.47.065a18.45,18.45,0,0,0,1.477-3.484c.029-3.445-3.353-5.374-6.615-5.439a8.622,8.622,0,0,0-5.441,1.38,35.454,35.454,0,0,0-3.59,4.5l-.1.173a17.886,17.886,0,0,1,7.361-2.592c.8-.043,3.184-.09,4.619,1.557a3.92,3.92,0,0,1,.866,2.768c-.033,1.573-3.945,3.316-5.691,3.35a11.02,11.02,0,0,0,.876-2.743c.024-1.135-.881-2.8-2.357-2.836-2.624-.051-4.745,4.987-5.172,6.337l-.019.065.013.067a3.013,3.013,0,0,0,1.468,1.743,21.534,21.534,0,0,1-9.434,1.344,12.789,12.789,0,0,1-8.232-3.01c-3.6-2.608-4.517-8.471-4.6-13.329,0-.08.056-11.416.056-11.416l-2.406,2.238v9.059c-2.206,1.391-4.587,3.044-5.376,3.647A7.639,7.639,0,0,0,4.7-347.112c-.578,2.678,1.8,2.551,2.886,4.341.888,1.461-2.969,4.415-5.884,4.361-8.093-.151-3.253-10.135-3.253-10.135a12.9,12.9,0,0,0-3.4,5.359c-1.059,2.973-.113,5.1,1.441,6.4,2.253,1.882,5.477,2.055,8.661.472,3.546-1.76,5.907-4.487,5.921-6.45.019-2.305-1.435-3.149-2.867-4.386-.569-.492-.565-.9-.07-1.77.508-.892,3.82-2.734,4.88-3.309.288,9.189,5.9,17.93,16.918,16.876,4.146-.4,8.456-2.646,10.181-3.616a10.947,10.947,0,0,0,9.808-5.949m-3.155,5.742.016.009-.009-.014ZM60.17-362.946l-2.342,2.3.032,16.266c-.13,1.5-.606,4.358-3.325,5.437-2.974,1.186-6.892.453-7.758-.217.138.269,2.862,5.436,8.359,3.33,5.119-1.966,5.042-8.626,5.04-9.076.009-.056-.007-18.036-.007-18.036m1.894-1.623L62.048-345.5a4.949,4.949,0,0,0,2.276-1.924v-19.29Zm-9.721,5.479-.863.864v1.717l4.359-4.025v-1.8c-.054.049-1.971,1.786-2.235,1.993a1.057,1.057,0,0,1-1.5-1.028A1.053,1.053,0,0,1,53.2-362.49a1.848,1.848,0,0,1,.694.187l1.057-.908c-3.045-2.506-5.895,2.757-2.607,4.121m1.275,18.444a4.933,4.933,0,0,0,2.225-1.9v-16.238l-2.225,2.115ZM13.142-337.39l-1.935-1.937-2.19,2.191,2.19,2.193,1.935-1.938,1.937,1.938,2.188-2.193-2.188-2.191Z" transform="translate(-0.04 0)" fill="#006eb8"/>
    <path id="Path_14524" data-name="Path 14524" d="M131.767-328.906l.014-6.638,6.639-.014,3.786,0c1.363-.022,2.29.982,3.206,1.858l1.46,1.463,10.984,10.985,3.695-3.694-10.985-10.985-.66-.663c-2.328-2.342-4.166-4.195-6.823-4.2l-11.93.026h-.006l-.048,0a4.562,4.562,0,0,0-2.914,1.026l-.053.044c-.081.071-.161.14-.238.217l0,0-.021.02-.019.02h0l0,0c-.078.077-.148.16-.218.239l-.044.053a4.547,4.547,0,0,0-1.024,2.912v.056h0l-.026,11.931a5.578,5.578,0,0,0,.687,2.67l4.544-4.544Z" transform="translate(-49.326 -9.684)" fill="#006eb8"/>
    <path id="Path_14525" data-name="Path 14525" d="M168.526-296.221l-.014,6.637-6.638.015-3.788,0c-1.363.023-2.291-.984-3.2-1.861l-1.46-1.463-10.987-10.987-3.694,3.695,11.646,11.649c2.327,2.344,3.63,4.114,6.821,4.2l11.932-.027h.054a4.538,4.538,0,0,0,2.911-1.024l.053-.046c.082-.068.163-.139.241-.216l0,0h0l.018-.021.022-.019,0,0c.076-.078.145-.158.217-.241l.043-.052a4.54,4.54,0,0,0,1.027-2.914v-.054l.027-11.93a5.616,5.616,0,0,0-.7-2.7l-4.528,4.528Z" transform="translate(-53.887 -23.475)" fill="#006eb8"/>
    <path id="Path_14526" data-name="Path 14526" d="M181.364-339.7l-.051-.046a4.542,4.542,0,0,0-2.913-1.024h-.048l-.008,0-11.929-.024a5.591,5.591,0,0,0-2.7.7l4.527,4.527,2.841,0,6.637.014.014,6.636.006,3.786c.021,1.365-.982,2.295-1.861,3.207l-1.461,1.46-10.99,10.989,3.694,3.694,11.651-11.649c2.345-2.328,4.115-3.632,4.2-6.821l-.026-11.932v-.055a4.532,4.532,0,0,0-1.024-2.912l-.046-.051c-.067-.083-.137-.165-.214-.242l0,0-.022-.019-.019-.023,0,0c-.079-.076-.161-.146-.242-.214" transform="translate(-63.107 -9.684)" fill="#fec925"/>
    <path id="Path_14527" data-name="Path 14527" d="M131.736-309.234c-.02-1.366.985-2.292,1.861-3.207l1.462-1.458,10.987-10.987-3.694-3.693-10.987,10.985-.663.658c-2.343,2.327-4.2,4.165-4.2,6.823l.025,11.93,0,.007v.048a4.561,4.561,0,0,0,1.024,2.914l.046.052c.071.079.14.162.217.24l0,0,.022.021.019.021.005,0c.078.076.159.145.24.215l.051.046a4.553,4.553,0,0,0,2.915,1.023h.054l11.931.028a5.568,5.568,0,0,0,2.669-.69l-4.544-4.544-2.79,0-6.636-.015-.015-6.637Z" transform="translate(-49.316 -14.247)" fill="#fec925"/>
  </g>
</svg>
