<svg xmlns="http://www.w3.org/2000/svg" width="130.274" height="153.542" viewBox="0 0 130.274 153.542"><path d="M210.63,147.661c.914,0,1.831,0,2.744,0,.443,2.227.873,4.453,1.33,6.673.494-2.237.981-4.477,1.479-6.717.744,0,1.489,0,2.233,0q.746,3.37,1.5,6.737.655-3.35,1.326-6.7h2.683q-1.365,6.025-2.734,12.053c-.788,0-1.58,0-2.369,0q-.777-3.218-1.546-6.439-.766,3.218-1.536,6.436-1.188,0-2.369,0Q212,153.691,210.63,147.661Z" transform="translate(-189.183 -147.434)" fill="#fff"/><g transform="translate(34.795)"><path d="M253.221,147.323a4.043,4.043,0,0,1,4.115.768,7.111,7.111,0,0,1,1.881,5.526,6.567,6.567,0,0,1-2.118,5.025,4.007,4.007,0,0,1-5.289-.311c-1.624-1.648-1.9-4.145-1.658-6.345A5.507,5.507,0,0,1,253.221,147.323Zm.964,2.673c-1.154.457-1.4,1.868-1.462,2.968-.024,1.232.1,2.768,1.255,3.5a1.609,1.609,0,0,0,2.223-1.022,6.247,6.247,0,0,0,0-4.267A1.674,1.674,0,0,0,254.185,150Z" transform="translate(-250.076 -147.069)" fill="#fff"/></g><g transform="translate(45.005 0.205)"><path d="M280.25,147.7a29.138,29.138,0,0,1,5.326.189c1.905.514,2.6,2.724,2.355,4.494a4.459,4.459,0,0,1-1.651,3.039q.98,2.122,1.973,4.243-1.472,0-2.944,0c-.8-1.289-.86-3.3-2.457-3.885-.034,1.293-.024,2.585-.02,3.881q-1.294,0-2.578,0C280.247,155.682,280.253,151.693,280.25,147.7Zm2.582,2.687c0,1.039,0,2.081,0,3.12a7.283,7.283,0,0,0,1.936-.247,1.771,1.771,0,0,0,.091-2.568A5.813,5.813,0,0,0,282.832,150.39Z" transform="translate(-280.25 -147.674)" fill="#fff"/></g><path d="M306.123,147.75H308.7c0,1.519,0,3.039,0,4.558.88-1.513,1.743-3.035,2.609-4.555,1,0,2,0,3,0-1.012,1.7-2.02,3.4-3.042,5.093,1.042,2.294,2.095,4.582,3.14,6.876h-3.039c-.656-1.445-1.3-2.9-1.99-4.328-.9,1.279-.7,2.856-.684,4.328H306.12Q306.125,153.734,306.123,147.75Z" transform="translate(-252.361 -147.52)" fill="#fff"/><path d="M332.37,147.75h2.622q.005,5.984,0,11.969H332.37Q332.375,153.734,332.37,147.75Z" transform="translate(-269.728 -147.52)" fill="#fff"/><path d="M344.248,147.74c.819,0,1.638,0,2.457.007q1.579,2.919,3.164,5.827c.01-1.942,0-3.888.007-5.83h2.535q.005,5.984,0,11.969h-2.308q-1.629-3.025-3.272-6.047c-.01,2.017,0,4.03,0,6.047q-1.294,0-2.578,0Q344.242,153.731,344.248,147.74Z" transform="translate(-277.587 -147.513)" fill="#fff"/><path d="M372.757,148.952a4.317,4.317,0,0,1,3.983-1.854,5.667,5.667,0,0,1,2.995,1.394c-.467.8-.944,1.587-1.4,2.389-.748-.45-1.56-1.181-2.5-.843-1.184.423-1.6,1.807-1.658,2.947a4,4,0,0,0,1.171,3.421,2.186,2.186,0,0,0,1.976.145c.088-.612.112-1.232.169-1.848-.528,0-1.056,0-1.584,0,0-.819,0-1.634,0-2.45q1.985-.005,3.976,0c0,1.939,0,3.881,0,5.824a5.789,5.789,0,0,1-4.159,1.374,4.786,4.786,0,0,1-3.935-3.817A8.431,8.431,0,0,1,372.757,148.952Z" transform="translate(-295.633 -147.07)" fill="#fff"/><path d="M409.5,147.73q3.4.015,6.8,0v2.754q-2.112,0-4.226,0c0,.623-.007,1.242,0,1.861q1.9,0,3.8,0,0,1.31,0,2.619h-3.807q-.005.995,0,1.99,2.152,0,4.311,0v2.751q-3.446,0-6.893,0C409.5,155.712,409.486,151.723,409.5,147.73Z" transform="translate(-320.755 -147.506)" fill="#fff"/><path d="M431,147.74c.941,0,1.885,0,2.829.007.589,2.409,1.167,4.819,1.753,7.231.6-2.409,1.164-4.825,1.753-7.235H440.1q-1.65,6.03-3.309,12.053h-2.48Q432.653,153.772,431,147.74Z" transform="translate(-334.983 -147.513)" fill="#fff"/><path d="M459.875,147.75h6.808c0,.917,0,1.834,0,2.751-1.411,0-2.822,0-4.23,0,0,.619,0,1.238,0,1.861q1.9-.005,3.8,0c0,.873,0,1.746,0,2.622q-1.9-.005-3.8,0c-.007.663-.007,1.326,0,1.99h4.314q0,1.376,0,2.751-3.446-.005-6.889,0Q459.87,153.733,459.875,147.75Z" transform="translate(-354.086 -147.52)" fill="#fff"/><g transform="translate(113.738 0.191)"><path d="M483.37,147.676c2.078.169,4.4-.5,6.27.65a4.723,4.723,0,0,1-.244,7.062q.98,2.127,1.973,4.253h-2.944c-.788-1.279-.856-3.282-2.426-3.874-.068,1.293-.051,2.585-.047,3.878q-1.294-.005-2.582,0Q483.375,153.657,483.37,147.676Zm2.6,2.687c-.017,1.039-.017,2.078-.007,3.12.748-.135,1.777.146,2.271-.592a1.869,1.869,0,0,0-.277-2.243A6.232,6.232,0,0,0,485.965,150.362Z" transform="translate(-483.37 -147.632)" fill="#fff"/></g><path d="M505.91,147.743q1.436,0,2.88,0c.525,1.394,1.049,2.785,1.59,4.176.538-1.387,1.066-2.778,1.594-4.169.947-.01,1.895-.007,2.846-.014-.978,2.416-2.091,4.781-3.015,7.218a27.518,27.518,0,0,0-.149,4.754q-1.294,0-2.585,0c-.108-1.861.349-3.841-.464-5.593Q507.242,150.939,505.91,147.743Z" transform="translate(-384.545 -147.513)" fill="#fff"/><g transform="translate(0.169 17.765)"><path d="M147.75,199.589c2.007.091,4.247-.386,6.027.8,1.888,1.3,2.331,3.807,2.166,5.949a5.4,5.4,0,0,1-2.876,4.839c-1.689.673-3.546.369-5.316.423Zm2.606,9.3c.924-.166,2.1-.223,2.545-1.222a5,5,0,0,0-.081-4.27c-.467-.914-1.59-.92-2.463-1.086Q150.295,205.6,150.356,208.888Z" transform="translate(-147.75 -199.568)" fill="#fff"/></g><g transform="translate(8.229 17.739)"><path d="M171.57,211.547c1.161-4.017,2.3-8.04,3.458-12.057.873,0,1.749,0,2.622.01,1.147,4.017,2.311,8.03,3.462,12.046h-2.734c-.193-.717-.386-1.438-.575-2.155h-2.988c-.189.721-.379,1.438-.565,2.159Q172.91,211.545,171.57,211.547Zm3.895-4.7c.562,0,1.123,0,1.689,0-.277-1.052-.535-2.108-.836-3.154C176.027,204.749,175.719,205.791,175.465,206.85Z" transform="translate(-171.57 -199.49)" fill="#fff"/></g><path d="M195.56,199.623q1.442-.005,2.883,0c.524,1.391,1.046,2.785,1.594,4.169.562-1.377,1.09-2.771,1.617-4.162.947-.007,1.892-.007,2.839,0-.863,2.047-1.726,4.1-2.612,6.138-.917,1.831-.443,3.922-.545,5.881a22.087,22.087,0,0,1-2.592-.078c-.206-1.888.359-3.908-.528-5.678C197.316,203.8,196.44,201.715,195.56,199.623Z" transform="translate(-179.213 -181.837)" fill="#fff"/><path d="M233.62,199.625c.859,0,1.722,0,2.582,0,0,4,0,8,0,12.006q-1.294.005-2.585,0Q233.625,205.63,233.62,199.625Z" transform="translate(-204.394 -181.839)" fill="#fff"/><path d="M245.5,199.62c.8,0,1.607,0,2.413,0q1.584,2.913,3.167,5.824c.007-1.942,0-3.885,0-5.827q1.289,0,2.582,0-.005,6,0,12.013c-.772,0-1.546,0-2.318,0q-1.65-3.051-3.3-6.1c-.017,2.034,0,4.067-.01,6.1q-1.269-.005-2.535,0Z" transform="translate(-212.254 -181.837)" fill="#fff"/><path d="M281.04,199.62c.961,0,1.922,0,2.886.007.525,1.4,1.052,2.805,1.6,4.2.538-1.4,1.073-2.805,1.614-4.21q1.416,0,2.836,0c-.981,2.419-2.1,4.781-3.018,7.225a33.263,33.263,0,0,0-.139,4.792c-.873,0-1.749-.007-2.622-.007-.1-1.871.352-3.858-.45-5.621C282.837,203.884,281.93,201.755,281.04,199.62Z" transform="translate(-235.768 -181.837)" fill="#fff"/><g transform="translate(53.741 17.563)"><path d="M309.2,199.253a4.1,4.1,0,0,1,5.022,1.848,8.851,8.851,0,0,1,.318,7.563,4.228,4.228,0,0,1-5.093,2.578c-2.342-.734-3.35-3.38-3.367-5.641C305.947,203.181,306.766,200.258,309.2,199.253Zm.944,2.673c-1.222.558-1.418,2.108-1.428,3.3.017,1.188.244,2.771,1.513,3.265a1.737,1.737,0,0,0,2.054-1.347,6.367,6.367,0,0,0-.081-4.061A1.689,1.689,0,0,0,310.146,201.926Z" transform="translate(-306.068 -198.972)" fill="#fff"/></g><path d="M335.985,199.62q1.31,0,2.622,0c.01,2.352-.014,4.707,0,7.062.014.778.051,1.827.89,2.186a1.338,1.338,0,0,0,1.821-1.238c.206-2.663.024-5.343.085-8.013q1.31,0,2.622,0c-.01,2.362.02,4.724-.007,7.089a5.852,5.852,0,0,1-1.242,4.047,4.257,4.257,0,0,1-4.524.738c-1.59-.673-2.213-2.514-2.243-4.118C335.945,204.794,336.005,202.205,335.985,199.62Z" transform="translate(-272.115 -181.837)" fill="#fff"/><g transform="translate(73.174 17.75)"><path d="M363.5,211.569q0-6,0-12.009c2.071.156,4.4-.48,6.26.69a4.728,4.728,0,0,1-.264,7.049q.99,2.137,1.98,4.27-1.472,0-2.941,0c-.782-1.306-.89-3.232-2.4-3.942-.081,1.313-.061,2.626-.061,3.942Q364.786,211.568,363.5,211.569Zm2.6-9.333c-.024,1.063-.024,2.122-.01,3.184a10.155,10.155,0,0,0,1.861-.24,1.815,1.815,0,0,0,.443-2.213C367.95,202.142,366.861,202.385,366.1,202.237Z" transform="translate(-363.496 -199.524)" fill="#fff"/></g><path d="M147.25,253.623q1.31-.005,2.622,0v11.972H147.25Q147.255,259.608,147.25,253.623Z" transform="translate(-147.25 -217.565)" fill="#fff"/><path d="M159.123,253.61q1.228.005,2.46.02c1.035,1.959,2.1,3.9,3.161,5.847.007-1.956,0-3.908,0-5.861q1.269-.005,2.538,0v11.975l-2.342-.02c-1.069-2.04-2.179-4.064-3.279-6.088-.01,2.034,0,4.067-.007,6.1H159.12Q159.125,259.6,159.123,253.61Z" transform="translate(-155.103 -217.558)" fill="#fff"/><path d="M185.873,253.625q3.721-.005,7.441,0,0,1.411,0,2.832-1.208,0-2.413,0c0,3.045,0,6.091,0,9.136q-1.31-.005-2.619,0v-9.136H185.87Q185.87,255.041,185.873,253.625Z" transform="translate(-172.802 -217.566)" fill="#fff"/><path d="M210.5,253.627q3.406,0,6.812,0-.005,1.37,0,2.748h-4.226c0,.633,0,1.269,0,1.9q1.9,0,3.8,0,0,1.31,0,2.619h-3.807c0,.65,0,1.3,0,1.949q2.152,0,4.311,0,0,1.375,0,2.751h-6.9Z" transform="translate(-189.097 -217.568)" fill="#fff"/><g transform="translate(29.354 36.018)"><path d="M234,253.55c2.1.169,4.484-.518,6.355.721a4.79,4.79,0,0,1-.318,7.025c.646,1.411,1.306,2.812,1.956,4.22q-1.472.005-2.941,0c-.778-1.3-.883-3.245-2.426-3.9-.064,1.3-.047,2.6-.047,3.9q-1.289,0-2.575,0Q233.992,259.533,234,253.55Zm2.589,2.677c-.01,1.063-.01,2.128,0,3.191a6.7,6.7,0,0,0,1.993-.328,1.759,1.759,0,0,0-.1-2.619A9.619,9.619,0,0,0,236.587,256.227Z" transform="translate(-233.997 -253.51)" fill="#fff"/></g><path d="M259.877,253.623c2.267,0,4.538,0,6.808,0v2.751q-2.117,0-4.233,0c0,.633,0,1.266.007,1.9q1.9-.005,3.8,0V260.9q-1.9-.005-3.8,0-.01.975,0,1.949c1.421,0,2.842,0,4.267,0q0,1.37,0,2.744c-2.284.007-4.568,0-6.852,0Q259.872,259.608,259.877,253.623Z" transform="translate(-221.765 -217.565)" fill="#fff"/><path d="M282.139,258.92c-1.2-1.841-.562-4.907,1.668-5.627a5.191,5.191,0,0,1,4.866,1.191c-.43.8-.87,1.584-1.293,2.382a5.362,5.362,0,0,0-2.277-1.056c-.643-.149-1.245.694-.768,1.211,1.157,1.049,2.974,1.2,3.871,2.578,1.137,1.831.518,4.792-1.638,5.57a5.524,5.524,0,0,1-5.489-1.472c.453-.775.92-1.546,1.377-2.325.88.626,1.817,1.465,2.985,1.3a.785.785,0,0,0,.423-1.377C284.68,260.419,283.039,260.172,282.139,258.92Z" transform="translate(-235.794 -217.204)" fill="#fff"/><path d="M304.5,253.627q3.721-.005,7.444,0v2.832h-2.409q-.005,4.568,0,9.136h-2.619q-.005-4.568,0-9.136H304.5Z" transform="translate(-251.289 -217.568)" fill="#fff"/><g transform="translate(26 55.813)"><path d="M506.224,264.6c5.451-2.761,10.764-5.78,16.107-8.74,0,2.548,0,5.1,0,7.647-4.392,2.5-8.754,5.052-13.288,7.282-1.313.653-3.242,1.225-4.318-.129a22.768,22.768,0,0,1-2.108-5.113A8.9,8.9,0,0,0,506.224,264.6Z" transform="translate(-443.523 -255.86)" fill="#fff"/><path d="M346.716,269.375a31.454,31.454,0,0,1,10.361-2.792,4.325,4.325,0,0,1,4.209,2.535,34.874,34.874,0,0,1,1.777,5.641,35.312,35.312,0,0,0-24.472,11.583c-2.193,2.629-4.423,5.719-4.426,9.289.017,2.149,2.23,3.221,4.013,3.736,4.176,1.117,8.571.663,12.794.061a77.628,77.628,0,0,0,12.341-2.957,167.77,167.77,0,0,0,16.479-7.681q-2.421-6.157-4.866-12.293c-2.389,4.639-4.264,9.522-6.6,14.188a5.2,5.2,0,0,1-2.247,2.453,25.553,25.553,0,0,1-11.349,3.184c5.079-9.644,10.223-19.254,15.322-28.891q5.477.005,10.957,0,3.741,8.365,7.478,16.726,9.212-4.974,18.293-10.2c-.01,2.974.017,5.949-.017,8.923A239.291,239.291,0,0,1,374.531,300.9c-5.746,2.558-11.559,5.127-17.745,6.429a33.412,33.412,0,0,1-15.413.017,19.761,19.761,0,0,1-9.113-5.13,16.676,16.676,0,0,1-4.142-13.143,19.641,19.641,0,0,1,3.844-8.392A35.746,35.746,0,0,1,346.716,269.375Z" transform="translate(-327.975 -262.942)" fill="#fff"/><path d="M491.94,350.986q4.538-2.447,9.069-4.9,3.365,7.071,6.741,14.138c-3.238-.01-6.473.02-9.708,0a3.032,3.032,0,0,1-3.029-1.8C494,355.94,493.006,353.446,491.94,350.986Z" transform="translate(-436.457 -315.558)" fill="#fff"/><path d="M330.373,401h72.58c0,2.2,0,4.4,0,6.6H330.37C330.373,405.4,330.37,403.2,330.373,401Z" transform="translate(-329.559 -351.887)" fill="#fff"/></g><g transform="translate(22 122.738)"><g transform="translate(68.03)"><path d="M702.579,400.9a3.99,3.99,0,0,1,3.942,1.079,7.328,7.328,0,0,1,1.685,5.465,6.487,6.487,0,0,1-2.176,4.947,4,4,0,0,1-5.174-.318c-1.888-1.895-2.064-4.883-1.529-7.367A4.987,4.987,0,0,1,702.579,400.9Zm.3,2.937c-1.018.721-1.157,2.1-1.164,3.252.03,1.151.257,2.592,1.414,3.157,1.046.4,1.99-.535,2.21-1.5a6.007,6.007,0,0,0-.321-4.24A1.523,1.523,0,0,0,702.876,403.833Z" transform="translate(-699.064 -400.75)" fill="#fff"/></g><g transform="translate(28.363 0.168)"><path d="M585.292,401.247c.87,0,1.743,0,2.619,0,1.151,4.02,2.315,8.037,3.465,12.053-.917,0-1.827,0-2.738,0-.186-.717-.376-1.435-.562-2.149-1-.01-2-.01-3-.01q-.284,1.076-.558,2.156h-2.68C582.984,409.28,584.144,405.267,585.292,401.247Zm1.279,4.122c-.281,1.079-.562,2.155-.843,3.238.562,0,1.123,0,1.689,0Q587,406.984,586.571,405.369Z" transform="translate(-581.84 -401.246)" fill="#fff"/></g><path d="M612,401.373q1.2-.005,2.409,0,1.589,2.924,3.174,5.841-.005-2.919,0-5.837c.856,0,1.719,0,2.578,0q0,6,0,12.013-1.162-.005-2.315,0c-1.1-2.03-2.189-4.067-3.3-6.088-.01,2.03,0,4.057-.007,6.084-.849,0-1.692,0-2.538,0Z" transform="translate(-573.431 -401.16)" fill="#fff"/><g transform="translate(48.085 0.194)"><path d="M640.123,401.343c1.77.061,3.638-.247,5.33.426a5.291,5.291,0,0,1,2.836,4.724c.176,2.156-.264,4.683-2.142,6.02-1.756,1.228-4.02.755-6.027.839Q640.125,407.348,640.123,401.343Zm2.589,2.727c-.02,2.183-.014,4.365-.007,6.551.887-.139,2.013-.159,2.484-1.083a4.956,4.956,0,0,0-.054-4.446C644.651,404.226,643.565,404.23,642.712,404.071Z" transform="translate(-640.12 -401.324)" fill="#fff"/></g><path d="M677.377,401.375q3.36-.005,6.724,0c0,.958,0,1.915,0,2.876-1.384,0-2.765,0-4.142,0-.007.663-.007,1.326,0,1.99h3.722c0,.917,0,1.831,0,2.751-1.242,0-2.484,0-3.722,0v4.4c-.859,0-1.722,0-2.578,0Q677.372,407.378,677.377,401.375Z" transform="translate(-616.684 -401.162)" fill="#fff"/><g transform="translate(78.243 0.178)"><path d="M729.248,401.315c2.1.156,4.5-.5,6.362.744a4.769,4.769,0,0,1-.332,7.011c.663,1.414,1.316,2.832,1.976,4.254-.985,0-1.963,0-2.941,0-.792-1.293-.866-3.3-2.46-3.881-.037,1.293-.027,2.589-.027,3.881q-1.289,0-2.575,0C729.241,409.321,729.251,405.318,729.248,401.315Zm2.582,2.727c0,1.042,0,2.081,0,3.123a8.7,8.7,0,0,0,1.915-.237,1.742,1.742,0,0,0-.027-2.694A12.239,12.239,0,0,0,731.829,404.043Z" transform="translate(-729.246 -401.277)" fill="#fff"/></g><path d="M500.561,455.462a5.135,5.135,0,0,1,5.059,1.123c-.433.788-.87,1.573-1.293,2.369-.8-.447-1.594-1.14-2.565-1.029a.754.754,0,0,0-.308,1.367c1.235.91,3.022,1.151,3.817,2.6.937,1.848.328,4.626-1.77,5.377a5.531,5.531,0,0,1-5.482-1.472c.453-.775.917-1.546,1.374-2.321.89.612,1.834,1.482,3,1.286.643-.051.978-1.049.376-1.4-1.245-.883-2.991-1.154-3.82-2.551C497.99,459.018,498.538,456.271,500.561,455.462Z" transform="translate(-498.02 -436.76)" fill="#fff"/><g transform="translate(8.356 18.381)"><path d="M525.948,455.293a4.022,4.022,0,0,1,4.05.826,7.135,7.135,0,0,1,1.858,5.533,6.57,6.57,0,0,1-2.081,4.961,3.988,3.988,0,0,1-5.265-.233c-1.685-1.641-1.966-4.2-1.716-6.433C523.021,458.034,524.04,455.99,525.948,455.293Zm.727,2.765c-1.232.7-1.33,2.325-1.3,3.587.044,1.11.349,2.534,1.54,2.944,1.012.308,1.851-.66,2.068-1.553a6.028,6.028,0,0,0-.311-4.213A1.542,1.542,0,0,0,526.676,458.057Z" transform="translate(-522.715 -455.069)" fill="#fff"/></g><path d="M552.277,459.285c.365-2.057,1.932-4.145,4.179-4.206a4.465,4.465,0,0,1,3.692,1.827c-.548.721-1.1,1.438-1.651,2.159-.636-.491-1.32-1.33-2.223-1-1.14.409-1.465,1.773-1.519,2.853-.044,1.252.118,2.883,1.381,3.516.971.464,1.753-.464,2.43-1.005q.807,1.005,1.614,2.013a5.184,5.184,0,0,1-2.694,1.932,3.985,3.985,0,0,1-4.155-1.6A8.551,8.551,0,0,1,552.277,459.285Z" transform="translate(-533.785 -436.681)" fill="#fff"/><path d="M578.5,455.75h2.578q.005,5.984,0,11.969H578.5Z" transform="translate(-551.267 -437.139)" fill="#fff"/><path d="M590.37,455.75h6.768q0,1.37,0,2.748c-1.411,0-2.822,0-4.23,0-.007.619-.007,1.242,0,1.861q1.919,0,3.847,0v2.619h-3.847c-.007.663,0,1.326,0,1.99,1.438,0,2.873,0,4.311,0q0,1.37,0,2.748H590.37Q590.375,461.734,590.37,455.75Z" transform="translate(-559.12 -437.139)" fill="#fff"/><path d="M612.5,455.748c2.467,0,4.937,0,7.4,0q-.005,1.411,0,2.829H617.49c-.007,3.045,0,6.094-.007,9.14q-1.289-.005-2.578,0,0-4.568,0-9.136H612.5Q612.49,457.164,612.5,455.748Z" transform="translate(-573.757 -437.137)" fill="#fff"/><path d="M634.75,455.748c.958,0,1.919,0,2.88,0q.792,2.091,1.587,4.186.807-2.091,1.6-4.186,1.416-.005,2.839,0c-.971,2.4-2.078,4.754-3,7.174a27.661,27.661,0,0,0-.156,4.8c-.863,0-1.722,0-2.585,0-.091-1.919.355-3.973-.538-5.763C636.483,459.894,635.62,457.819,634.75,455.748Z" transform="translate(-588.483 -437.137)" fill="#fff"/></g></svg>