<svg xmlns="http://www.w3.org/2000/svg" width="108.844" height="78.234" viewBox="0 0 108.844 78.234">
  <g id="Group_14299" data-name="Group 14299" transform="translate(1.011 0.992)">
    <path id="Path_58615" data-name="Path 58615" d="M979.774,503.73c-.175-1.064.733-1.317,1.058-.319.454,3.19-2.563,3.743-3.419,2.156-.176-.407-.432-.132-.891.24-1.654,1.085-3.565.7-4.3-1.2-.242-.939-.609-.745-.788-.345-1.527,2.694-7.307,3.257-9.028,1.745-1.336-1.31-.694-3.549.729-4.934-.718,2.72-.275,4.158,1.985,4.142a38.229,38.229,0,0,0,4.233-.688q2.358-.754,2.035-3.754-.326-3.474-.651-6.949c.353-.426.811-.727,1.164-1.153.413,3.12.678,6.9,1.239,10.418,1.058,2.806,2.872,2.5,4.682-.174.487.387-.044,1.975,1.158,2.156.278.108,1.045-.444.793-1.343Z" transform="translate(-874.049 -433.574)" fill="#fff" stroke="#fff" stroke-linecap="round" stroke-linejoin="round" stroke-width="1.984" fill-rule="evenodd"/>
    <path id="Path_58616" data-name="Path 58616" d="M573.88,497.851c.114,2.443-1.2,3.638-3.157,2.272-1.079.716-1.59,1.224-2.7-.2-1.43,1.3-2.775,1.545-3.934-.761-1.344,2.814-3.717,3.426-5.418,2.767a25.461,25.461,0,0,0,3.323-1.955,1.734,1.734,0,0,0,.011-2.292c-1.278-3.177-4.054-6.405-5.7-9.008q.164-.868.328-1.737a21.344,21.344,0,0,1,3.475,3.024c-1.008,0-1.168.239-.685.708,1.644,2.3,3.3,4.542,3.9,7.464.768-1.834.792-5.132,0-10.038l1.246-.965a61.982,61.982,0,0,1,.2,10.038c.762,2.333,2.044,2.9,4.025.758.259,2.242,1.944,1.685,2.663.143.41,1.83,1.083,1.826,2.084-.368.122-.711.326-.487.351.155Z" transform="translate(-518.303 -428.536)" fill="#fff" stroke="#fff" stroke-linecap="round" stroke-linejoin="round" stroke-width="1.984" fill-rule="evenodd"/>
    <path id="Path_58617" data-name="Path 58617" d="M505.361,497.278c-.338.111-.6.071-.939.182q-.028,3.238-.056,6.477c-.15,1.734-.7,2.151-1.3,2.38.059-3.91.143-8.045-.056-11.957a.736.736,0,0,1,.169-.941c.7-.419,1.258-.854,1.185-.277a20.832,20.832,0,0,0,1,4.136Z" transform="translate(-471.457 -433.741)" fill="#fff" stroke="#fff" stroke-linecap="round" stroke-linejoin="round" stroke-width="1.984" fill-rule="evenodd"/>
    <path id="Path_58618" data-name="Path 58618" d="M475.076,546.113c-1.15,1.158,1.069,1.751.843.235-.271.648-.991.587-.843-.235Z" transform="translate(-446.735 -480.47)" fill="#fff" stroke="#fff" stroke-linecap="round" stroke-linejoin="round" stroke-width="1.984" fill-rule="evenodd"/>
    <path id="Path_58619" data-name="Path 58619" d="M273.194,505.09c.276-.139-.029-1.754,0-2.768q-.014-.631.282-.609c1.048.287,1.233-.487.959-.886a.953.953,0,0,1-.564-1.163q-.079-.411.9-.387.028-.609.056-1.218c-.764-.124-1.074.1-1.072.554,0,.6-.126.84-.3.83a.227.227,0,0,1-.2-.221c0-.351-.011-.7-.011-1.052l-1.072.055c-.22.114-.3,1.028.339,1.384,1.294,1.062.334,1.354.427,2.06-.3,1.141-.116,3.1.25,3.42Z" transform="translate(-268.833 -438.271)" fill="#fff" stroke="#fff" stroke-linecap="round" stroke-linejoin="round" stroke-width="1.984" fill-rule="evenodd"/>
    <path id="Path_58620" data-name="Path 58620" d="M381.611,527.418v-.443a2.044,2.044,0,0,0-1.467-.052c-.019.185.009.323-.01.508a5.326,5.326,0,0,1,1.477-.013Z" transform="translate(-363.71 -463.533)" fill="#fff" stroke="#fff" stroke-linecap="round" stroke-linejoin="round" stroke-width="1.984" fill-rule="evenodd"/>
    <path id="Path_58621" data-name="Path 58621" d="M379.574,499.185v-.813c-1.5-.076-.964.895-1.523.818-.493-.4-.194-.917-1.523-.763,0,.406.069.812.069,1.218.655,0,1.056.108,1.116.652.144.836.722.7.79,0,.06-.669.28-1.04,1.072-1.112Z" transform="translate(-360.545 -438.571)" fill="#fff" stroke="#fff" stroke-linecap="round" stroke-linejoin="round" stroke-width="1.984" fill-rule="evenodd"/>
    <path id="Path_58622" data-name="Path 58622" d="M474.078,504.25a3.786,3.786,0,0,0-.395-2.823c-.415-.4-.746-.158-.508.443s.405,1.19.631,1.785c.045.592.166.79.272.595Z" transform="translate(-445.289 -441.085)" fill="#fff" stroke="#fff" stroke-linecap="round" stroke-linejoin="round" stroke-width="1.984" fill-rule="evenodd"/>
    <path id="Path_58623" data-name="Path 58623" d="M627.634,609.234c.529.338-.068,1.36-.928,1.032a1.061,1.061,0,0,1-1.241,0,2.037,2.037,0,0,1-2.426.941c2.083-.429,1.732-1.26,2.482-1.439.546.368.855.092,1.128-.277.354.456.7.421.985-.257Z" transform="translate(-576.873 -535.863)" fill="#fff" stroke="#fff" stroke-linecap="round" stroke-linejoin="round" stroke-width="1.984" fill-rule="evenodd"/>
    <path id="Path_58624" data-name="Path 58624" d="M884.465,606.867l-.9,1-1.128-1.052-.9,1.052,1.185,1.052.959-.775,1.072.83.959-1.107-1.241-1Z" transform="translate(-803.716 -533.737)" fill="#fff" stroke="#fff" stroke-linecap="round" stroke-linejoin="round" stroke-width="1.984" fill-rule="evenodd"/>
    <path id="Path_58625" data-name="Path 58625" d="M711.455,517.345c.523-.187.167-.687-.389-.462-.357.185-.695.389-1.052.573-.412.312-.258.5.342.388a2.258,2.258,0,0,1,1.1-.5Z" transform="translate(-652.996 -454.769)" fill="#fff" stroke="#fff" stroke-linecap="round" stroke-linejoin="round" stroke-width="1.984" fill-rule="evenodd"/>
    <path id="Path_58626" data-name="Path 58626" d="M990.509,530.385c1.178-.387.14-1.176-.508-.775-.771.646-1.542,1.315-2.313,1.961-.592.69-.668,1.266.395,1.471.828-.1,1.481-.105.9.609a4.875,4.875,0,0,1-1.749.5c-.7.177-.679.84.282.72a3.164,3.164,0,0,0,2.764-1.439c.465-.708.215-1.708-.49-1.614-1,.028-1.025-.206-.751-.49l1.467-.941Z" transform="translate(-896.051 -465.891)" fill="#fff" stroke="#fff" stroke-linecap="round" stroke-linejoin="round" stroke-width="1.984" fill-rule="evenodd"/>
    <path id="Path_58627" data-name="Path 58627" d="M1062.14,504.594c.685-.249,1.83.132,1.749-.83-.583-.143-1.166.088-1.749-.055a1.506,1.506,0,0,1,1.411-.886h1.354c-.148,1.122-.507,1.784-1.03,2.035-.461.221-1.788.455-1.735-.263Z" transform="translate(-962.21 -442.481)" fill="#fff" stroke="#fff" stroke-linecap="round" stroke-linejoin="round" stroke-width="1.984" fill-rule="evenodd"/>
    <path id="Path_58628" data-name="Path 58628" d="M1072.324,506.892l.087,1.052-5.056,3.211-.134-.886,5.1-3.377Z" transform="translate(-966.67 -446.052)" fill="#fff" stroke="#fff" stroke-linecap="round" stroke-linejoin="round" stroke-width="1.984" fill-rule="evenodd"/>
    <path id="Path_58629" data-name="Path 58629" d="M1098.995,609.976l1.3,1.052-1.015,1-1.185-1.107.9-.941Z" transform="translate(-993.761 -536.514)" fill="#fff" stroke="#fff" stroke-linecap="round" stroke-linejoin="round" stroke-width="1.984" fill-rule="evenodd"/>
    <path id="Path_58630" data-name="Path 58630" d="M272.017,493.37l-.9-4.1c-.09-.832-.344-.6-.621-.221a3.12,3.12,0,0,0-.564.83c-.092,3.112.262,4.564.226,10.167.059.147-.8.135-1.354.351,1.272-2.637-.213-5.1-3.667-3.543a20.005,20.005,0,0,0-3.391,3.64c-1.7-1.312-3.119-1.3-4.776.447-1.19,1.185-2.59,2.279-3.85,3.442-1.793,1.306-2.643.14-1.918-2.879a20.928,20.928,0,0,0,6.173-2.478c1.514-.79,1.746-3.539.033-3.39l-2.313-.166c-.674-.032-1.245-.3-.518-1.172,1.27-1.493,2.716-2.574,3.508-.821.081.253.184.452.451.277.78-2.264.076-3.063-1.693-2.6a6.371,6.371,0,0,0-3.484,4.328c-.084,1.024.091,1.641,1.284,1.485,1.828-.137,2.949-.317,2.49.96-2.325.871-6.67,2.762-8.752,1.586-1.744-1.056-1.791-3.077-.677-5.757-3.386,4.272-1.354,7.28,2.708,7.916-.875,3.586.584,5.522,2.708,4.152a16.356,16.356,0,0,0,3.836-3.543c1.773-1.8,3.566-1.059,3.747.166a1.27,1.27,0,0,0-.193,1.113c.431.386.349-.578.733-.947a15.067,15.067,0,0,0,8.293-.941c.334-.086.748-.353.949.277.61,1.556,2,1.694,2.947.162.875-1.3.459-2.971-.92-2.728-.937.063-1.19.165-1.171-.756q-.056-2.8-.113-5.591.858.62.79.332Zm-.154,7.321a.912.912,0,0,1,.793.458c.124.358-.14.662-.653.389-.375-.39-.32-.641-.14-.847Zm-9.267-.18q-.6.662.4.775a10.738,10.738,0,0,0,4.57-.72c1.015-.475.976-1.281.1-2.237-1.007-.9-1.877-.672-2.868.023a12.153,12.153,0,0,0-2.2,2.159Z" transform="translate(-245.992 -430.094)" fill="#fff" stroke="#fff" stroke-linecap="round" stroke-linejoin="round" stroke-width="1.984" fill-rule="evenodd"/>
    <path id="Path_58631" data-name="Path 58631" d="M361.572,543.719c1.195-1.592-.49-1.469-.9-.941-.942,1.046-.408,2.229.9.941Zm-.724-.175c.262.126.569-.224.4-.447-.265-.145-.6.246-.4.447Z" transform="translate(-346.209 -477.232)" fill="#fff" stroke="#fff" stroke-linecap="round" stroke-linejoin="round" stroke-width="1.984" fill-rule="evenodd"/>
    <path id="Path_58632" data-name="Path 58632" d="M525.793,506.031c.276-.139,0-1.754.026-2.768-.009-.42.059-.624.256-.609,1.086.287,1.263-.487.959-.886a.953.953,0,0,1-.564-1.162q-.079-.412.9-.388a2.484,2.484,0,0,0,.056-1.218c-.764-.124-1.074.1-1.072.554,0,.6-.126.84-.3.83a.227.227,0,0,1-.2-.221c0-.351-.011-.7-.011-1.052-.357.019-.791.037-1.148.055-.22.114-.321,1.2.415,1.384,1.294,1.062.257,1.354.351,2.06-.3,1.141-.04,3.1.327,3.42Z" transform="translate(-490.435 -439.096)" fill="#fff" stroke="#fff" stroke-linecap="round" stroke-linejoin="round" stroke-width="1.984" fill-rule="evenodd"/>
    <path id="Path_58633" data-name="Path 58633" d="M423.186,498.217a2.487,2.487,0,0,0-.26-1.855c-.273-.26-.49-.1-.334.291s.266.782.415,1.173c.029.389.109.519.179.391Z" transform="translate(-400.923 -436.698)" fill="#fff" stroke="#fff" stroke-linecap="round" stroke-linejoin="round" stroke-width="1.984" fill-rule="evenodd"/>
    <path id="Path_58634" data-name="Path 58634" d="M485.54,547.846a2.038,2.038,0,0,0,.451-1.218,10.939,10.939,0,0,1,1.692.055,5.171,5.171,0,0,1,.835-2.646c-2.947-1.958-5-1.851-4.784,1.816-1.139.819-2.232,1.666-1.918,3.377.855.169,2.182-.025,3.272.111.215.17.283.406-.677,1.107-3.136,1.578-5.66,2.077-7.447,1.273-1.486-.949-1.179-2.565-.056-4.484-2.277,1.176-3.422,5.148.169,6.2,3.441.821,7.688-1.1,9.2-3.432.654-.984.252-1.527-.9-1.827-1.538-.178-2.728.175-1.749-.83,1.061-.7,1.757-.652,1.918.5Zm.792-2.31q1.11-.179.2-.858c-.918-.45-1.546-.449-1.827.1-.08.759.661.853,1.63.761Z" transform="translate(-446.765 -477.54)" fill="#fff" stroke="#fff" stroke-linecap="round" stroke-linejoin="round" stroke-width="1.984" fill-rule="evenodd"/>
    <path id="Path_58635" data-name="Path 58635" d="M701.122,499.109h-1.547c-1.343-.008-1.573-1.013-1.368-2.636.64-1.681,1.736-1.732,2.833-.639a3.613,3.613,0,0,1,1.14,2.955,4.3,4.3,0,0,1-.081,2.077c-.452,1.689-4,1.79-4.64.24q-.084-.5-.814-.24a17.978,17.978,0,0,1-8.367,1.07,9.186,9.186,0,0,1-.941,1.613c-.11-.47.451-1.323.5-1.869-.37-.37-.475-.883-.943-.767a2.742,2.742,0,0,1-4.656-.127c-.186-.311-.4-.253-.522.112-2.684,4.313-7.973,5.39-10.141,2.844.188.224-1.675.267-3.419.319,1.452-.6,3.3-1.25,3.288-1.486a6.079,6.079,0,0,1,1.84-4.664c.157.483-.771,1.848-.815,3.65-.08.46.218.4.569.267,1.214-.876,1.8-1.718,1.463-2.509-.58-1.895-2.176-3.727-3.847-5.685a13.767,13.767,0,0,1-3.875-3.95l.766-1.73a25.925,25.925,0,0,1,2.614,2.8,2.478,2.478,0,0,0,.73.6h-.669c-.035.138.093.45.743.835a17.426,17.426,0,0,1,3.716,4.432c.382.565.454.315.493-.052a17.21,17.21,0,0,0-.576-6.825,6.329,6.329,0,0,1,1.216-1.73l1.155,4.712c-.523-.051-.958.014-.79.895.611,6-.738,8.327-2.8,9.592.711,1.176,6.205-.139,8.206-3.628q-.182-5.13-.365-10.259l1.216-1.193q.274,5.011.547,10.021c.8,4.126,3.656,1.992,4.742.358a7.454,7.454,0,0,0,1.022,1.551c1.719-2.777,3.053-4.388,5.6-4.231,1.374.144,2.043,1.047,1.523,3.217-.409,1.291.828.6,1.516.024.4,1.219,1.11,2.277,3.932,1.462.743-.91.311-1.268-.2-1.425Zm-11.263.762q-.9.8.344.7a26.117,26.117,0,0,0,3.885-.605,1.249,1.249,0,0,0,.1-2.35c-1.711-.7-3.016.793-4.327,2.253Zm9.758-2.163c.3,0,.5,0,.565-.471,0-.227-.195-.448-.622-.432a.476.476,0,0,0-.421.5c.009.141-.018.411.478.4Z" transform="translate(-615.258 -429.432)" fill="#fff" stroke="#fff" stroke-linecap="round" stroke-linejoin="round" stroke-width="1.984" fill-rule="evenodd"/>
    <path id="Path_58636" data-name="Path 58636" d="M1070.322,542.393l1.225,1.07-.961,1.05-1.239-1.071.975-1.048Z" transform="translate(-968.535 -477.206)" fill="#fff" stroke="#fff" stroke-linecap="round" stroke-linejoin="round" stroke-width="1.984" fill-rule="evenodd"/>
    <path id="Path_58637" data-name="Path 58637" d="M925.48,514.113l1.225,1.07-.961,1.05-1.239-1.071.975-1.048Z" transform="translate(-841.428 -452.389)" fill="#fff" stroke="#fff" stroke-linecap="round" stroke-linejoin="round" stroke-width="1.984" fill-rule="evenodd"/>
    <path id="Path_58638" data-name="Path 58638" d="M814.463,499.7v-.834c-1.541-.078-.989.918-1.562.839-.505-.414-.2-.941-1.563-.782,0,.417.071.833.07,1.249.672,0,1.083.11,1.145.669.147.858.74.719.81,0,.061-.687.287-1.067,1.1-1.141Z" transform="translate(-742.117 -439.004)" fill="#fff" stroke="#fff" stroke-linecap="round" stroke-linejoin="round" stroke-width="1.984" fill-rule="evenodd"/>
    <path id="Path_58639" data-name="Path 58639" d="M639.776,501.912c.22-.106,0-1.335.02-2.107-.007-.32.047-.475.2-.464.863.219,1-.371.763-.674-.317-.187-.579-.409-.449-.885q-.063-.313.718-.295a1.811,1.811,0,0,0,.045-.927c-.608-.094-.854.074-.853.421,0,.46-.1.639-.237.632a.176.176,0,0,1-.158-.168c0-.267-.009-.534-.009-.8-.284.014-.629.028-.913.042a.693.693,0,0,0,.33,1.053c1.029.808.2,1.031.279,1.568a3.906,3.906,0,0,0,.26,2.6Z" transform="translate(-590.687 -436.963)" fill="#fff" stroke="#fff" stroke-linecap="round" stroke-linejoin="round" stroke-width="1.984" fill-rule="evenodd"/>
    <path id="Path_58640" data-name="Path 58640" d="M646.279,543.631c-1.195,1.592.49,1.469.9.941.943-1.046.408-2.229-.9-.941Zm.724.175c-.262-.126-.569.223-.4.447.265.145.6-.247.4-.447Z" transform="translate(-596.898 -477.798)" fill="#fff" stroke="#fff" stroke-linecap="round" stroke-linejoin="round" stroke-width="1.984" fill-rule="evenodd"/>
    <path id="Path_58641" data-name="Path 58641" d="M897.617,531.471c1.195-1.592-.49-1.469-.9-.941-.942,1.046-.408,2.229.9.941Zm-.724-.175c.262.126.569-.223.4-.447-.265-.145-.6.246-.4.447Z" transform="translate(-816.621 -466.484)" fill="#fff" stroke="#fff" stroke-linecap="round" stroke-linejoin="round" stroke-width="1.984" fill-rule="evenodd"/>
    <path id="Path_58642" data-name="Path 58642" d="M1020.71,503.847a1.719,1.719,0,0,0-.03-1.855c-.35-.261-.7-.1-.542.291s.242.782.385,1.173c-.03.389.062.519.187.391Z" transform="translate(-925.318 -441.639)" fill="#fff" stroke="#fff" stroke-linecap="round" stroke-linejoin="round" stroke-width="1.984" fill-rule="evenodd"/>
    <path id="Path_58643" data-name="Path 58643" d="M1102.285,531.191a1.72,1.72,0,0,0-.031-1.856c-.349-.26-.7-.1-.542.291s.242.782.385,1.173c-.03.389.062.519.187.391Z" transform="translate(-996.905 -465.635)" fill="#fff" stroke="#fff" stroke-linecap="round" stroke-linejoin="round" stroke-width="1.984" fill-rule="evenodd"/>
    <path id="Path_58644" data-name="Path 58644" d="M835.267,545.112a1.718,1.718,0,0,0-.03-1.855c-.349-.26-.7-.1-.542.291s.242.782.385,1.173c-.03.389.062.519.187.391Z" transform="translate(-762.581 -477.851)" fill="#fff" stroke="#fff" stroke-linecap="round" stroke-linejoin="round" stroke-width="1.984" fill-rule="evenodd"/>
    <path id="Path_58645" data-name="Path 58645" d="M757.117,497.278c-.3.111-.538.071-.842.182q-.025,3.238-.051,6.477c-.134,1.734-.623,2.151-1.163,2.38.053-3.91.128-8.045-.051-11.957a.8.8,0,0,1,.152-.941c.629-.419,1.128-.854,1.062-.277a22.86,22.86,0,0,0,.892,4.136Z" transform="translate(-692.612 -433.741)" fill="#fff" stroke="#fff" stroke-linecap="round" stroke-linejoin="round" stroke-width="1.984" fill-rule="evenodd"/>
    <path id="Path_58646" data-name="Path 58646" d="M808.2,506.447c-.6.551-.428,1.222.472.927a53.634,53.634,0,0,1,11.709-3.974c.78-.334.442-1.111-.34-.966a60.918,60.918,0,0,0-11.841,4.014Z" transform="translate(-739.052 -442.124)" fill="#fff" stroke="#fff" stroke-linecap="round" stroke-linejoin="round" stroke-width="1.984" fill-rule="evenodd"/>
    <path id="Path_58647" data-name="Path 58647" d="M960.438,502.377c1.236.046.842-.976.145-.767-.435.139-.858.959-1.251.517q-.489-.972-1.2-.446a.5.5,0,0,0,.091.678,5.47,5.47,0,0,0,.526.517c.175.351-.375.719-.616,1.266a2.571,2.571,0,0,1-1.65,1c-.1.1-.37.159.2.41.624-.059,1.045.155,1.342-.214a4.069,4.069,0,0,0,1.07-1.641q.227-.455.381-.054c.176.405.351.692.526.143a3.043,3.043,0,0,1,.435-1.409Z" transform="translate(-869.36 -441.317)" fill="#fff" stroke="#fff" stroke-linecap="round" stroke-linejoin="round" stroke-width="1.984" fill-rule="evenodd"/>
    <path id="Path_58648" data-name="Path 58648" d="M709.029,500.613c.29-.276-.082-.559-.36-.275-.273.249-.486.457-.759.706-.287.334-.2.641.22.647.256.034.309.163,0,.314l-.46.118c-.223.055-.276.219.04.235.907.284,1.812-.956,1.1-1.235q-.439-.01-.16-.333a.63.63,0,0,0,.38-.177Z" transform="translate(-650.983 -440.197)" fill="#fff" stroke="#fff" stroke-linecap="round" stroke-linejoin="round" stroke-width="1.984" fill-rule="evenodd"/>
    <path id="Path_58649" data-name="Path 58649" d="M590.062,502.388c.107.072.121.375.121.713q-1.157.663-2.315,1.406a1.312,1.312,0,0,1-.322-.535,25.627,25.627,0,0,1,2.516-1.584Z" transform="translate(-545.726 -442.099)" fill="#fff" stroke="#fff" stroke-linecap="round" stroke-linejoin="round" stroke-width="1.984" fill-rule="evenodd"/>
    <path id="Path_58650" data-name="Path 58650" d="M572.34,41.817c.091-2.748,1.833-2.006,1.825-3.4a2.946,2.946,0,0,1,2-2.536c.893-.314,1.437-1.112,1.36-2.773q.026-5.513.052-11.026c.168-1.659-.628-1.7-1.567-1.372.159-1.291.976-1.938,1.984-1.756.416-3.13,1.664-2.328,2.5-3.161q-.1,11.773-.2,23.547l1.648-.027q.112-11.619.223-23.238c.124-1.32-.975-1.216-1.646-.883a2,2,0,0,1,2.1-1.885c.112-2.711,1.73-2.672,2.35-3.179-.066,11.836-.132,23.908-.2,35.744.119,1.266,2.253,1.463,2.332,0,.063-11.905.126-23.979.188-35.885,1.131.623,2.447.736,2.548,3.4,1.1-.329,1.736.525,2.06,1.918-1.023-.715-1.781-.473-1.622.726-.055,8.662-.109,17.109-.164,25.771,1.774.7,2.287,3.515-.09,4.034,1.9,1.194,1.123,3.74-.6,3.509-.269,2.131-2.639,2.038-3.633,4.026-.642-1.8-3.24-2.172-3.448-3.9-2.161-.294-2.149-2.416-.616-3.659-2.52-1.109-1.522-3.225.175-4.01-3.151.015-6.352-.008-9.556.015ZM591.96,15.8c.787.7,2.125.335,2.352,3.227,1.354-.1,1.753.605,2.085,1.938a1.054,1.054,0,0,0-1.637.171q-.065,6.253-.129,12.505c.083,2.1.706,1.983,2.025,2.86a3.419,3.419,0,0,1,1.25,2.9c.929.1,1.55.824,1.723,2.421h-7.971q.151-13,.3-26.023Zm2.581,22.172-.026,1.505,1.417-.025a1.747,1.747,0,0,0-1.391-1.48Zm-17.176-.137v1.515l-1.274-.036a1.509,1.509,0,0,1,1.274-1.478Z" transform="translate(-532.382 -9.992)" fill="#fff" stroke="#fff" stroke-linecap="round" stroke-linejoin="round" stroke-width="1.984" fill-rule="evenodd"/>
    <path id="Path_58651" data-name="Path 58651" d="M475.546,223.258c-3.952,3.329-4.214,7.5-3.609,10.946,3.958-2.74,5.353-6.326,4.187-10.946a10.276,10.276,0,0,1-3.571,12.714c2.021,4.308,5.6,6.354,10.467,6.526a11.423,11.423,0,0,0,9.851-6.282,10.662,10.662,0,0,1-3.325-12.958c-.964,5.09.26,8.969,4.125,11.19.6-4.01.117-7.469-3.382-11.19,5.17,2.625,5.649,9.307,5.352,12.1,5.076,1.113,9.133-.183,11.7-5,3.082-8.7-3.469-14-10.528-13.3,7.168-1.887,16.536,4.151,13.053,14.638-2.8,6.011-8.844,8.2-14.859,5.692-2.428,6.713-8.485,8.9-13.627,8.62-5.721-.849-9.264-3.96-11-8.945-5.117,2.639-14.006-.185-15.351-8.051-.9-9.574,7.009-13.59,13.628-12.117-7.726-.746-13.305,5.719-10.262,13.174a9.5,9.5,0,0,0,11.575,4.879c-.953-4.991,2.087-10.277,5.579-11.7Z" transform="translate(-429.37 -191.308)" fill="#fff" stroke="#fff" stroke-linecap="round" stroke-linejoin="round" stroke-width="1.984" fill-rule="evenodd"/>
    <path id="Path_58652" data-name="Path 58652" d="M979.774,503.73c-.175-1.064.733-1.317,1.058-.319.454,3.19-2.563,3.743-3.419,2.156-.176-.407-.432-.132-.891.24-1.654,1.085-3.565.7-4.3-1.2-.242-.939-.609-.745-.788-.345-1.527,2.694-7.307,3.257-9.028,1.745-1.336-1.31-.694-3.549.729-4.934-.718,2.72-.275,4.158,1.985,4.142a38.229,38.229,0,0,0,4.233-.688q2.358-.754,2.035-3.754-.326-3.474-.651-6.949c.353-.426.811-.727,1.164-1.153.413,3.12.678,6.9,1.239,10.418,1.058,2.806,2.872,2.5,4.682-.174.487.387-.044,1.975,1.158,2.156.278.108,1.045-.444.793-1.343Z" transform="translate(-874.049 -433.574)" fill="#003c15" fill-rule="evenodd"/>
    <path id="Path_58653" data-name="Path 58653" d="M573.88,497.851c.114,2.443-1.2,3.638-3.157,2.272-1.079.716-1.59,1.224-2.7-.2-1.43,1.3-2.775,1.545-3.934-.761-1.344,2.814-3.717,3.426-5.418,2.767a25.461,25.461,0,0,0,3.323-1.955,1.734,1.734,0,0,0,.011-2.292c-1.278-3.177-4.054-6.405-5.7-9.008q.164-.868.328-1.737a21.344,21.344,0,0,1,3.475,3.024c-1.008,0-1.168.239-.685.708,1.644,2.3,3.3,4.542,3.9,7.464.768-1.834.792-5.132,0-10.038l1.246-.965a61.982,61.982,0,0,1,.2,10.038c.762,2.333,2.044,2.9,4.025.758.259,2.242,1.944,1.685,2.663.143.41,1.83,1.083,1.826,2.084-.368.122-.711.326-.487.351.155Z" transform="translate(-518.303 -428.536)" fill="#003c15" fill-rule="evenodd"/>
    <path id="Path_58654" data-name="Path 58654" d="M505.361,497.278c-.338.111-.6.071-.939.182q-.028,3.238-.056,6.477c-.15,1.734-.7,2.151-1.3,2.38.059-3.91.143-8.045-.056-11.957a.736.736,0,0,1,.169-.941c.7-.419,1.258-.854,1.185-.277a20.832,20.832,0,0,0,1,4.136Z" transform="translate(-471.457 -433.741)" fill="#003c15" fill-rule="evenodd"/>
    <path id="Path_58655" data-name="Path 58655" d="M475.076,546.113c-1.15,1.158,1.069,1.751.843.235-.271.648-.991.587-.843-.235Z" transform="translate(-446.735 -480.47)" fill="#003c15" fill-rule="evenodd"/>
    <path id="Path_58656" data-name="Path 58656" d="M273.194,505.09c.276-.139-.029-1.754,0-2.768q-.014-.631.282-.609c1.048.287,1.233-.487.959-.886a.953.953,0,0,1-.564-1.163q-.079-.411.9-.387.028-.609.056-1.218c-.764-.124-1.074.1-1.072.554,0,.6-.126.84-.3.83a.227.227,0,0,1-.2-.221c0-.351-.011-.7-.011-1.052l-1.072.055c-.22.114-.3,1.028.339,1.384,1.294,1.062.334,1.354.427,2.06-.3,1.141-.116,3.1.25,3.42Z" transform="translate(-268.833 -438.271)" fill="#003c15" fill-rule="evenodd"/>
    <path id="Path_58657" data-name="Path 58657" d="M381.611,527.418v-.443a2.044,2.044,0,0,0-1.467-.052c-.019.185.009.323-.01.508a5.326,5.326,0,0,1,1.477-.013Z" transform="translate(-363.71 -463.533)" fill="#003c15" fill-rule="evenodd"/>
    <path id="Path_58658" data-name="Path 58658" d="M379.574,499.185v-.813c-1.5-.076-.964.895-1.523.818-.493-.4-.194-.917-1.523-.763,0,.406.069.812.069,1.218.655,0,1.056.108,1.116.652.144.836.722.7.79,0,.06-.669.28-1.04,1.072-1.112Z" transform="translate(-360.545 -438.571)" fill="#003c15" fill-rule="evenodd"/>
    <path id="Path_58659" data-name="Path 58659" d="M474.078,504.25a3.786,3.786,0,0,0-.395-2.823c-.415-.4-.746-.158-.508.443s.405,1.19.631,1.785c.045.592.166.79.272.595Z" transform="translate(-445.289 -441.085)" fill="#003c15" fill-rule="evenodd"/>
    <path id="Path_58660" data-name="Path 58660" d="M627.634,609.234c.529.338-.068,1.36-.928,1.032a1.061,1.061,0,0,1-1.241,0,2.037,2.037,0,0,1-2.426.941c2.083-.429,1.732-1.26,2.482-1.439.546.368.855.092,1.128-.277.354.456.7.421.985-.257Z" transform="translate(-576.873 -535.863)" fill="#003c15" fill-rule="evenodd"/>
    <path id="Path_58661" data-name="Path 58661" d="M884.465,606.867l-.9,1-1.128-1.052-.9,1.052,1.185,1.052.959-.775,1.072.83.959-1.107-1.241-1Z" transform="translate(-803.716 -533.737)" fill="#003c15" fill-rule="evenodd"/>
    <path id="Path_58662" data-name="Path 58662" d="M711.455,517.345c.523-.187.167-.687-.389-.462-.357.185-.695.389-1.052.573-.412.312-.258.5.342.388a2.258,2.258,0,0,1,1.1-.5Z" transform="translate(-652.996 -454.769)" fill="#003c15" fill-rule="evenodd"/>
    <path id="Path_58663" data-name="Path 58663" d="M990.509,530.385c1.178-.387.14-1.176-.508-.775-.771.646-1.542,1.315-2.313,1.961-.592.69-.668,1.266.395,1.471.828-.1,1.481-.105.9.609a4.875,4.875,0,0,1-1.749.5c-.7.177-.679.84.282.72a3.164,3.164,0,0,0,2.764-1.439c.465-.708.215-1.708-.49-1.614-1,.028-1.025-.206-.751-.49l1.467-.941Z" transform="translate(-896.051 -465.891)" fill="#003c15" fill-rule="evenodd"/>
    <path id="Path_58664" data-name="Path 58664" d="M1062.14,504.594c.685-.249,1.83.132,1.749-.83-.583-.143-1.166.088-1.749-.055a1.506,1.506,0,0,1,1.411-.886h1.354c-.148,1.122-.507,1.784-1.03,2.035-.461.221-1.788.455-1.735-.263Z" transform="translate(-962.21 -442.481)" fill="#003c15" fill-rule="evenodd"/>
    <path id="Path_58665" data-name="Path 58665" d="M1072.324,506.892l.087,1.052-5.056,3.211-.134-.886,5.1-3.377Z" transform="translate(-966.67 -446.052)" fill="#003c15" fill-rule="evenodd"/>
    <path id="Path_58666" data-name="Path 58666" d="M1098.995,609.976l1.3,1.052-1.015,1-1.185-1.107.9-.941Z" transform="translate(-993.761 -536.514)" fill="#003c15" fill-rule="evenodd"/>
    <path id="Path_58667" data-name="Path 58667" d="M272.017,493.37l-.9-4.1c-.09-.832-.344-.6-.621-.221a3.12,3.12,0,0,0-.564.83c-.092,3.112.262,4.564.226,10.167.059.147-.8.135-1.354.351,1.272-2.637-.213-5.1-3.667-3.543a20.005,20.005,0,0,0-3.391,3.64c-1.7-1.312-3.119-1.3-4.776.447-1.19,1.185-2.59,2.279-3.85,3.442-1.793,1.306-2.643.14-1.918-2.879a20.928,20.928,0,0,0,6.173-2.478c1.514-.79,1.746-3.539.033-3.39l-2.313-.166c-.674-.032-1.245-.3-.518-1.172,1.27-1.493,2.716-2.574,3.508-.821.081.253.184.452.451.277.78-2.264.076-3.063-1.693-2.6a6.371,6.371,0,0,0-3.484,4.328c-.084,1.024.091,1.641,1.284,1.485,1.828-.137,2.949-.317,2.49.96-2.325.871-6.67,2.762-8.752,1.586-1.744-1.056-1.791-3.077-.677-5.757-3.386,4.272-1.354,7.28,2.708,7.916-.875,3.586.584,5.522,2.708,4.152a16.356,16.356,0,0,0,3.836-3.543c1.773-1.8,3.566-1.059,3.747.166a1.27,1.27,0,0,0-.193,1.113c.431.386.349-.578.733-.947a15.067,15.067,0,0,0,8.293-.941c.334-.086.748-.353.949.277.61,1.556,2,1.694,2.947.162.875-1.3.459-2.971-.92-2.728-.937.063-1.19.165-1.171-.756q-.056-2.8-.113-5.591.858.62.79.332Zm-.154,7.321a.912.912,0,0,1,.793.458c.124.358-.14.662-.653.389-.375-.39-.32-.641-.14-.847Zm-9.267-.18q-.6.662.4.775a10.738,10.738,0,0,0,4.57-.72c1.015-.475.976-1.281.1-2.237-1.007-.9-1.877-.672-2.868.023a12.153,12.153,0,0,0-2.2,2.159Z" transform="translate(-245.992 -430.094)" fill="#003c15" fill-rule="evenodd"/>
    <path id="Path_58668" data-name="Path 58668" d="M361.572,543.719c1.195-1.592-.49-1.469-.9-.941-.942,1.046-.408,2.229.9.941Zm-.724-.175c.262.126.569-.224.4-.447-.265-.145-.6.246-.4.447Z" transform="translate(-346.209 -477.232)" fill="#003c15" fill-rule="evenodd"/>
    <path id="Path_58669" data-name="Path 58669" d="M525.793,506.031c.276-.139,0-1.754.026-2.768-.009-.42.059-.624.256-.609,1.086.287,1.263-.487.959-.886a.953.953,0,0,1-.564-1.162q-.079-.412.9-.388a2.484,2.484,0,0,0,.056-1.218c-.764-.124-1.074.1-1.072.554,0,.6-.126.84-.3.83a.227.227,0,0,1-.2-.221c0-.351-.011-.7-.011-1.052-.357.019-.791.037-1.148.055-.22.114-.321,1.2.415,1.384,1.294,1.062.257,1.354.351,2.06-.3,1.141-.04,3.1.327,3.42Z" transform="translate(-490.435 -439.096)" fill="#003c15" fill-rule="evenodd"/>
    <path id="Path_58670" data-name="Path 58670" d="M423.186,498.217a2.487,2.487,0,0,0-.26-1.855c-.273-.26-.49-.1-.334.291s.266.782.415,1.173c.029.389.109.519.179.391Z" transform="translate(-400.923 -436.698)" fill="#003c15" fill-rule="evenodd"/>
    <path id="Path_58671" data-name="Path 58671" d="M485.54,547.846a2.038,2.038,0,0,0,.451-1.218,10.939,10.939,0,0,1,1.692.055,5.171,5.171,0,0,1,.835-2.646c-2.947-1.958-5-1.851-4.784,1.816-1.139.819-2.232,1.666-1.918,3.377.855.169,2.182-.025,3.272.111.215.17.283.406-.677,1.107-3.136,1.578-5.66,2.077-7.447,1.273-1.486-.949-1.179-2.565-.056-4.484-2.277,1.176-3.422,5.148.169,6.2,3.441.821,7.688-1.1,9.2-3.432.654-.984.252-1.527-.9-1.827-1.538-.178-2.728.175-1.749-.83,1.061-.7,1.757-.652,1.918.5Zm.792-2.31q1.11-.179.2-.858c-.918-.45-1.546-.449-1.827.1-.08.759.661.853,1.63.761Z" transform="translate(-446.765 -477.54)" fill="#003c15" fill-rule="evenodd"/>
    <path id="Path_58672" data-name="Path 58672" d="M701.122,499.109h-1.547c-1.343-.008-1.573-1.013-1.368-2.636.64-1.681,1.736-1.732,2.833-.639a3.613,3.613,0,0,1,1.14,2.955,4.3,4.3,0,0,1-.081,2.077c-.452,1.689-4,1.79-4.64.24q-.084-.5-.814-.24a17.978,17.978,0,0,1-8.367,1.07,9.186,9.186,0,0,1-.941,1.613c-.11-.47.451-1.323.5-1.869-.37-.37-.475-.883-.943-.767a2.742,2.742,0,0,1-4.656-.127c-.186-.311-.4-.253-.522.112-2.684,4.313-7.973,5.39-10.141,2.844.188.224-1.675.267-3.419.319,1.452-.6,3.3-1.25,3.288-1.486a6.079,6.079,0,0,1,1.84-4.664c.157.483-.771,1.848-.815,3.65-.08.46.218.4.569.267,1.214-.876,1.8-1.718,1.463-2.509-.58-1.895-2.176-3.727-3.847-5.685a13.767,13.767,0,0,1-3.875-3.95l.766-1.73a25.925,25.925,0,0,1,2.614,2.8,2.478,2.478,0,0,0,.73.6h-.669c-.035.138.093.45.743.835a17.426,17.426,0,0,1,3.716,4.432c.382.565.454.315.493-.052a17.21,17.21,0,0,0-.576-6.825,6.329,6.329,0,0,1,1.216-1.73l1.155,4.712c-.523-.051-.958.014-.79.895.611,6-.738,8.327-2.8,9.592.711,1.176,6.205-.139,8.206-3.628q-.182-5.13-.365-10.259l1.216-1.193q.274,5.011.547,10.021c.8,4.126,3.656,1.992,4.742.358a7.454,7.454,0,0,0,1.022,1.551c1.719-2.777,3.053-4.388,5.6-4.231,1.374.144,2.043,1.047,1.523,3.217-.409,1.291.828.6,1.516.024.4,1.219,1.11,2.277,3.932,1.462.743-.91.311-1.268-.2-1.425Zm-11.263.762q-.9.8.344.7a26.117,26.117,0,0,0,3.885-.605,1.249,1.249,0,0,0,.1-2.35c-1.711-.7-3.016.793-4.327,2.253Zm9.758-2.163c.3,0,.5,0,.565-.471,0-.227-.195-.448-.622-.432a.476.476,0,0,0-.421.5c.009.141-.018.411.478.4Z" transform="translate(-615.258 -429.432)" fill="#003c15" fill-rule="evenodd"/>
    <path id="Path_58673" data-name="Path 58673" d="M1070.322,542.393l1.225,1.07-.961,1.05-1.239-1.071.975-1.048Z" transform="translate(-968.535 -477.206)" fill="#003c15" fill-rule="evenodd"/>
    <path id="Path_58674" data-name="Path 58674" d="M925.48,514.113l1.225,1.07-.961,1.05-1.239-1.071.975-1.048Z" transform="translate(-841.428 -452.389)" fill="#003c15" fill-rule="evenodd"/>
    <path id="Path_58675" data-name="Path 58675" d="M814.463,499.7v-.834c-1.541-.078-.989.918-1.562.839-.505-.414-.2-.941-1.563-.782,0,.417.071.833.07,1.249.672,0,1.083.11,1.145.669.147.858.74.719.81,0,.061-.687.287-1.067,1.1-1.141Z" transform="translate(-742.117 -439.004)" fill="#003c15" fill-rule="evenodd"/>
    <path id="Path_58676" data-name="Path 58676" d="M639.776,501.912c.22-.106,0-1.335.02-2.107-.007-.32.047-.475.2-.464.863.219,1-.371.763-.674-.317-.187-.579-.409-.449-.885q-.063-.313.718-.295a1.811,1.811,0,0,0,.045-.927c-.608-.094-.854.074-.853.421,0,.46-.1.639-.237.632a.176.176,0,0,1-.158-.168c0-.267-.009-.534-.009-.8-.284.014-.629.028-.913.042a.693.693,0,0,0,.33,1.053c1.029.808.2,1.031.279,1.568a3.906,3.906,0,0,0,.26,2.6Z" transform="translate(-590.687 -436.963)" fill="#003c15" fill-rule="evenodd"/>
    <path id="Path_58677" data-name="Path 58677" d="M646.279,543.631c-1.195,1.592.49,1.469.9.941.943-1.046.408-2.229-.9-.941Zm.724.175c-.262-.126-.569.223-.4.447.265.145.6-.247.4-.447Z" transform="translate(-596.898 -477.798)" fill="#003c15" fill-rule="evenodd"/>
    <path id="Path_58678" data-name="Path 58678" d="M897.617,531.471c1.195-1.592-.49-1.469-.9-.941-.942,1.046-.408,2.229.9.941Zm-.724-.175c.262.126.569-.223.4-.447-.265-.145-.6.246-.4.447Z" transform="translate(-816.621 -466.484)" fill="#003c15" fill-rule="evenodd"/>
    <path id="Path_58679" data-name="Path 58679" d="M1020.71,503.847a1.719,1.719,0,0,0-.03-1.855c-.35-.261-.7-.1-.542.291s.242.782.385,1.173c-.03.389.062.519.187.391Z" transform="translate(-925.318 -441.639)" fill="#003c15" fill-rule="evenodd"/>
    <path id="Path_58680" data-name="Path 58680" d="M1102.285,531.191a1.72,1.72,0,0,0-.031-1.856c-.349-.26-.7-.1-.542.291s.242.782.385,1.173c-.03.389.062.519.187.391Z" transform="translate(-996.905 -465.635)" fill="#003c15" fill-rule="evenodd"/>
    <path id="Path_58681" data-name="Path 58681" d="M835.267,545.112a1.718,1.718,0,0,0-.03-1.855c-.349-.26-.7-.1-.542.291s.242.782.385,1.173c-.03.389.062.519.187.391Z" transform="translate(-762.581 -477.851)" fill="#003c15" fill-rule="evenodd"/>
    <path id="Path_58682" data-name="Path 58682" d="M757.117,497.278c-.3.111-.538.071-.842.182q-.025,3.238-.051,6.477c-.134,1.734-.623,2.151-1.163,2.38.053-3.91.128-8.045-.051-11.957a.8.8,0,0,1,.152-.941c.629-.419,1.128-.854,1.062-.277a22.86,22.86,0,0,0,.892,4.136Z" transform="translate(-692.612 -433.741)" fill="#003c15" fill-rule="evenodd"/>
    <path id="Path_58683" data-name="Path 58683" d="M808.2,506.447c-.6.551-.428,1.222.472.927a53.634,53.634,0,0,1,11.709-3.974c.78-.334.442-1.111-.34-.966a60.918,60.918,0,0,0-11.841,4.014Z" transform="translate(-739.052 -442.124)" fill="#003c15" fill-rule="evenodd"/>
    <path id="Path_58684" data-name="Path 58684" d="M960.438,502.377c1.236.046.842-.976.145-.767-.435.139-.858.959-1.251.517q-.489-.972-1.2-.446a.5.5,0,0,0,.091.678,5.47,5.47,0,0,0,.526.517c.175.351-.375.719-.616,1.266a2.571,2.571,0,0,1-1.65,1c-.1.1-.37.159.2.41.624-.059,1.045.155,1.342-.214a4.069,4.069,0,0,0,1.07-1.641q.227-.455.381-.054c.176.405.351.692.526.143a3.043,3.043,0,0,1,.435-1.409Z" transform="translate(-869.36 -441.317)" fill="#003c15" fill-rule="evenodd"/>
    <path id="Path_58685" data-name="Path 58685" d="M709.029,500.613c.29-.276-.082-.559-.36-.275-.273.249-.486.457-.759.706-.287.334-.2.641.22.647.256.034.309.163,0,.314l-.46.118c-.223.055-.276.219.04.235.907.284,1.812-.956,1.1-1.235q-.439-.01-.16-.333a.63.63,0,0,0,.38-.177Z" transform="translate(-650.983 -440.197)" fill="#003c15" fill-rule="evenodd"/>
    <path id="Path_58686" data-name="Path 58686" d="M590.062,502.388c.107.072.121.375.121.713q-1.157.663-2.315,1.406a1.312,1.312,0,0,1-.322-.535,25.627,25.627,0,0,1,2.516-1.584Z" transform="translate(-545.726 -442.099)" fill="#003c15" fill-rule="evenodd"/>
    <path id="Path_58687" data-name="Path 58687" d="M572.34,41.817c.091-2.748,1.833-2.006,1.825-3.4a2.946,2.946,0,0,1,2-2.536c.893-.314,1.437-1.112,1.36-2.773q.026-5.513.052-11.026c.168-1.659-.628-1.7-1.567-1.372.159-1.291.976-1.938,1.984-1.756.416-3.13,1.664-2.328,2.5-3.161q-.1,11.773-.2,23.547l1.648-.027q.112-11.619.223-23.238c.124-1.32-.975-1.216-1.646-.883a2,2,0,0,1,2.1-1.885c.112-2.711,1.73-2.672,2.35-3.179-.066,11.836-.132,23.908-.2,35.744.119,1.266,2.253,1.463,2.332,0,.063-11.905.126-23.979.188-35.885,1.131.623,2.447.736,2.548,3.4,1.1-.329,1.736.525,2.06,1.918-1.023-.715-1.781-.473-1.622.726-.055,8.662-.109,17.109-.164,25.771,1.774.7,2.287,3.515-.09,4.034,1.9,1.194,1.123,3.74-.6,3.509-.269,2.131-2.639,2.038-3.633,4.026-.642-1.8-3.24-2.172-3.448-3.9-2.161-.294-2.149-2.416-.616-3.659-2.52-1.109-1.522-3.225.175-4.01-3.151.015-6.352-.008-9.556.015ZM591.96,15.8c.787.7,2.125.335,2.352,3.227,1.354-.1,1.753.605,2.085,1.938a1.054,1.054,0,0,0-1.637.171q-.065,6.253-.129,12.505c.083,2.1.706,1.983,2.025,2.86a3.419,3.419,0,0,1,1.25,2.9c.929.1,1.55.824,1.723,2.421h-7.971q.151-13,.3-26.023Zm2.581,22.172-.026,1.505,1.417-.025a1.747,1.747,0,0,0-1.391-1.48Zm-17.176-.137v1.515l-1.274-.036a1.509,1.509,0,0,1,1.274-1.478Z" transform="translate(-532.382 -9.992)" fill="#003010" fill-rule="evenodd"/>
    <path id="Path_58688" data-name="Path 58688" d="M475.546,223.258c-3.952,3.329-4.214,7.5-3.609,10.946,3.958-2.74,5.353-6.326,4.187-10.946a10.276,10.276,0,0,1-3.571,12.714c2.021,4.308,5.6,6.354,10.467,6.526a11.423,11.423,0,0,0,9.851-6.282,10.662,10.662,0,0,1-3.325-12.958c-.964,5.09.26,8.969,4.125,11.19.6-4.01.117-7.469-3.382-11.19,5.17,2.625,5.649,9.307,5.352,12.1,5.076,1.113,9.133-.183,11.7-5,3.082-8.7-3.469-14-10.528-13.3,7.168-1.887,16.536,4.151,13.053,14.638-2.8,6.011-8.844,8.2-14.859,5.692-2.428,6.713-8.485,8.9-13.627,8.62-5.721-.849-9.264-3.96-11-8.945-5.117,2.639-14.006-.185-15.351-8.051-.9-9.574,7.009-13.59,13.628-12.117-7.726-.746-13.305,5.719-10.262,13.174a9.5,9.5,0,0,0,11.575,4.879c-.953-4.991,2.087-10.277,5.579-11.7Z" transform="translate(-429.37 -191.308)" fill="#c47d15" fill-rule="evenodd"/>
  </g>
</svg>
