<svg width="96" height="96" viewBox="0 0 96 96" fill="none" xmlns="http://www.w3.org/2000/svg">
  <rect width="96" height="96" rx="24" fill="#1D4ED8"/>
  <path d="M25 33C25 28.5817 28.5817 25 33 25H65C68.3137 25 71 27.6863 71 31V35H33C30.7909 35 29 36.7909 29 39V63C29 65.2091 30.7909 67 33 67H71V71C71 74.3137 68.3137 77 65 77H33C28.5817 77 25 73.4183 25 69V33Z" fill="#F8FAFC"/>
  <path d="M35 41C35 38.7909 36.7909 37 39 37H73C75.2091 37 77 38.7909 77 41V61C77 63.2091 75.2091 65 73 65H39C36.7909 65 35 63.2091 35 61V41Z" fill="#F8FAFC"/>
  <circle cx="65" cy="51" r="5" fill="#1D4ED8"/>
</svg>
